<?xml version="1.0" standalone="no"?>
<!DOCTYPE svg PUBLIC "-//W3C//DTD SVG 20010904//EN"
 "http://www.w3.org/TR/2001/REC-SVG-20010904/DTD/svg10.dtd">
<svg version="1.0" xmlns="http://www.w3.org/2000/svg"
 width="260.000000pt" height="260.000000pt" viewBox="0 0 260.000000 260.000000"
 preserveAspectRatio="xMidYMid meet">
<metadata>
Created by potrace 1.11, written by Peter Selinger 2001-2013
</metadata>
<g transform="translate(0.000000,260.000000) scale(0.100000,-0.100000)"
fill="#000000" stroke="none">
<path d="M183 2215 c-6 -16 22 -44 43 -45 18 0 62 -72 72 -115 9 -43 8 -158
-3 -425 -4 -91 -8 -210 -10 -265 -9 -290 -25 -657 -30 -702 -11 -91 -47 -169
-99 -215 -31 -28 -86 -53 -86 -40 0 4 -4 0 -9 -8 -6 -8 -7 -18 -5 -22 7 -11
501 -10 508 1 8 12 -13 27 -47 35 -36 8 -91 63 -111 109 -31 74 -33 131 -21
462 4 110 8 245 10 300 2 55 7 181 10 280 4 99 9 221 10 270 2 50 4 108 5 130
l1 40 17 -35 c9 -19 45 -96 80 -170 76 -161 138 -290 309 -650 296 -619 353
-741 353 -748 0 -4 9 -13 21 -20 21 -14 79 -8 79 8 0 8 42 97 209 447 55 117
114 241 130 275 16 35 68 143 115 241 47 98 86 180 86 182 0 1 40 86 89 187
49 101 96 200 104 221 9 20 20 37 24 37 4 0 8 -37 9 -83 1 -77 10 -307 19
-512 10 -198 17 -439 18 -610 2 -156 -1 -187 -17 -229 -22 -57 -81 -120 -123
-130 -34 -9 -55 -25 -47 -37 7 -12 641 -12 648 0 8 12 -13 27 -47 35 -41 10
-122 94 -131 136 -20 87 -24 128 -31 305 -13 322 -14 338 -31 740 -4 83 -7
215 -7 295 0 133 2 149 25 200 14 30 42 70 63 89 28 26 34 35 24 42 -8 5 -94
9 -192 9 l-178 0 -78 -162 c-43 -90 -115 -239 -160 -333 -45 -93 -86 -177 -91
-185 -6 -8 -14 -24 -19 -35 -16 -35 -156 -323 -269 -554 l-109 -224 -282 569
c-156 313 -322 649 -369 746 l-87 177 -193 1 c-165 0 -193 -2 -199 -15z"/>
</g>
</svg>
